<mxfile host="app.diagrams.net" modified="2023-11-30T19:24:05.276Z" agent="Mozilla/5.0 (Windows NT 10.0; Win64; x64) AppleWebKit/537.36 (KHTML, like Gecko) Chrome/119.0.0.0 Safari/537.36" version="22.1.5" etag="BosgISLNuNy-laOGD7GJ" type="github">
  <diagram name="Page-1" id="t_LbYcsPZLLIKlT5W3sZ">
    <mxGraphModel>
      <root>
        <mxCell id="0" />
        <mxCell id="1" parent="0" />
      </root>
    </mxGraphModel>
  </diagram>
</mxfile>
